<?xml version="1.0" encoding="UTF-8"?>
<svg width="321px" height="195px" viewBox="0 0 321 195" version="1.1" xmlns="http://www.w3.org/2000/svg" xmlns:xlink="http://www.w3.org/1999/xlink">
    <!-- Generator: Sketch 55.1 (78136) - https://sketchapp.com -->
    <title>Group 20@3x</title>
    <desc>Created with Sketch.</desc>
    <g id="Web-2" stroke="none" stroke-width="1" fill="none" fill-rule="evenodd">
        <g id="Desktop-HD" transform="translate(-1311.000000, -2758.000000)">
            <g id="Group-20" transform="translate(1311.000000, 2758.000000)">
                <path d="M291.513049,195 L34.4308119,195 C26.1764486,195 19.4222866,191.206395 19.4222866,186.56686 L19.4222866,183.194767 C19.4222866,181.119186 20.7795598,179.212209 23.0157498,177.738372 L15.0081634,177.738372 C6.7538002,177.738372 0,173.943314 0,169.305523 C0,164.667442 6.7538002,160.873256 15.0081634,160.873256 L37.9884526,160.873256 C33.2559076,159.45 30.0166887,156.644186 30.0166887,153.432558 C30.0166887,148.794767 36.7701271,145 45.0248522,145 L305.991837,145 C314.248009,145 321,148.794767 321,153.432558 C321,158.070349 314.248009,161.865116 305.991837,161.865116 L275.092613,161.751163 C278.292029,162.257849 279.583808,163.605523 280.389633,165.304651 C281.633287,167.925581 281.52003,171.092151 278.976998,173.172674 C277.562191,174.329942 275.469653,174.920058 274.132281,174.948256 L291.513049,174.761919 C299.767775,174.761919 306.521575,178.555233 306.521575,183.194767 L306.521575,186.56686 C306.521575,191.206395 299.767775,195 291.513049,195" id="Fill-3" fill="#DBFFFC"></path>
                <g id="Seller" transform="translate(9.000000, 7.000000)">
                    <path d="M58.2553871,25.7510146 C58.1906874,25.7570009 58.1256342,25.7629872 58.061288,25.7693257 C56.378742,25.9313084 54.6827611,26.5253623 53.5011959,27.7289642 C52.9015746,28.3395686 52.4557476,29.081872 52.054468,29.8368522 C50.9810892,31.8545933 50.2184812,33.9814967 49.4106187,36.1105128 C47.0588019,42.3052949 45.193824,48.6842443 43.8238165,55.164961 C43.1640916,58.2862973 39.2439256,93.8260071 41.5663977,93.6764706 C55.7596754,92.7597384 69.9812371,92.2801287 84.2042131,92.2378724 C85.1499602,73.8151567 86.005552,54.7765547 79.4726491,37.5155367 C78.456899,34.832258 77.2392717,32.1676425 75.3262109,30.0241888 C71.2395227,25.4467688 63.9867914,25.2189366 58.2553871,25.7510146" id="Fill-90" fill="#7DB7E0"></path>
                    <path d="M82.436231,89.8732573 C78.8592993,88.8443686 74.984976,87.2568597 71.249507,87.2894385 C70.8526268,87.2931155 70.4553888,87.3040274 70.0581508,87.3131793 C69.7256876,87.3378192 69.3871406,87.363867 69.0421519,87.3913228 C66.5391944,87.5891454 63.7266776,87.8534955 60.790337,88.2040851 C60.6461145,88.221333 60.5026078,88.2382288 60.3580275,88.2558287 C56.6021598,89.0597911 54.1636193,89.3741248 52.5803931,89.4568443 C51.0576473,89.8563615 49.572836,90.3607739 48.1832186,91.0228813 C47.4893046,91.3530549 46.8462084,91.7237083 46.2256582,92.1137216 L46.2059753,96.1275493 L53.3659224,164.30419 L59.2368142,164.30419 L59.2368142,164.998329 L59.270812,164.998329 L65.7257511,119.268219 L65.7525915,119.010908 L69.2890836,164.998329 L69.3227236,164.998329 L69.3227236,164.30419 L75.2218873,164.30419 L82.7042772,113.09383 L82.436231,89.8732573" id="Fill-93" fill="#BABCBE"></path>
                    <path d="M83.8392763,40.8485256 C84.7928653,40.3342111 85.7349868,39.7798476 86.7326537,39.3192832 C89.5561513,38.0155804 92.3459634,36.6416161 95.098148,35.1987954 C96.7835026,34.3152566 98.5089933,33.3607537 99.6424777,31.8518872 C100.282504,30.9992634 100.701782,30.009981 101.101351,29.0266708 C103.212434,23.8311815 104.957992,18.4923587 106.320826,13.0618446 C105.174799,12.522236 102.028421,11.0446359 100.941881,12.0539429 C100.574924,12.3950626 100.371377,12.8679228 100.176789,13.3253254 C99.2500764,15.5048382 98.305088,17.6759197 97.3407483,19.8389211 C96.2628094,22.2576744 95.1508265,24.6838053 93.5912553,26.8352135 C93.3891417,27.1138005 93.1723355,27.3944953 92.8745405,27.5729596 C92.5563192,27.7637197 92.1753853,27.8199289 91.8059189,27.8722738 C86.1445892,28.672904 82.7892892,26.6089714 77.2300915,27.9713425 C75.9769158,28.2678462 72.5130335,32.032108 71.7325312,33.0375506 C71.1218902,33.8237772 70.9839226,34.8615401 70.9255104,35.8487146 C70.8481052,37.1559305 70.8860911,38.5249766 71.4988821,39.6892102 C72.2109382,41.0427987 73.633617,41.9435516 75.1383595,42.32191 C76.6431021,42.700971 78.2309836,42.6113875 79.7665449,42.3816323 C81.2544447,42.1592545 82.557432,41.5402504 83.8392763,40.8485256" id="Fill-43" fill="#7DB7E0"></path>
                    <polyline id="Fill-91" fill="#191718" points="68.7490441 164.636656 68.7490441 167.12734 75.1900419 170.320856 78.4103593 167.12734 75.1900419 163.933824 74.7744819 163.933824 74.6706827 164.636656 68.7490441 164.636656"></polyline>
                    <polyline id="Fill-92" fill="#191718" points="53.091551 163.933824 52.6466101 163.933824 49.4264137 167.12734 52.6466101 170.320856 59.0877289 167.12734 59.0877289 164.636656 53.1659498 164.636656 53.091551 163.933824"></polyline>
                    <path d="M70.5230671,8.15244037 C71.3343668,9.6464964 71.6713148,11.3393839 71.657806,13.0128817 C71.6543323,13.4581372 71.658578,13.9724902 72.0306488,14.2527579 C72.4285794,14.5531203 72.0310348,15.1513772 72.3664389,14.7910834 C72.701843,14.430437 73.8427574,13.1782221 73.9168628,12.7068788 C74.0909333,11.6023772 74.1515299,10.482364 74.0971088,9.36763885 C74.049635,8.39780682 73.8933189,7.37967708 73.2541598,6.61149678 C72.8755276,6.15601769 72.354474,5.82357435 71.8415257,5.50100209 C71.0973839,5.03318416 70.3296983,4.56078324 69.4562581,4.36618227 C67.9502203,4.03021356 66.9895518,4.49203833 68.2767472,5.54154396 C69.198819,6.29280243 69.9672766,7.12867002 70.5230671,8.15244037" id="Fill-94" fill="#363636"></path>
                    <path d="M60.9848683,26.8220899 C62.7952089,27.1071063 64.6055494,27.3921227 66.4155544,27.677139 C66.7733266,25.9941512 67.0179944,24.2783455 67.1462017,22.5504114 C68.7444297,22.3449428 70.6339769,21.8947667 71.2612528,20.1315177 C71.4585981,19.5757536 71.4938383,18.961488 71.5267292,18.3607776 C71.6619845,15.8766048 71.7969042,13.392432 71.9321595,10.9082592 C71.9791465,10.0489295 72.0231129,9.16355949 71.7888493,8.35060288 C71.3777134,6.92445084 70.2033749,6.02267186 69.0377626,5.43159283 C66.0634878,3.92268259 62.5193283,3.7789259 59.6242601,5.52826297 C58.8540095,5.99377783 58.1183279,6.60697327 57.6464445,7.4684433 C56.9184822,8.79614163 56.9215028,10.4866205 56.9493594,12.0672307 C56.9752022,13.5265574 57.001045,14.9862408 57.0265522,16.4455674 C57.0564225,18.123918 57.1970478,20.0616013 58.3562833,21.011537 C58.9718125,21.5162906 59.7920707,21.6482757 60.3129547,22.2857278 C61.2315498,23.4097411 60.6982478,25.2892797 60.9848683,26.8220899" id="Fill-95" fill="#E8B98A"></path>
                    <path d="M65.8599421,20.5296861 C64.9756855,21.0938118 64.0323626,21.0749228 63.0945988,20.7182123 C62.6960753,20.5663742 62.9028072,19.8533164 63.3020256,20.0055178 C64.0792681,20.3012025 64.8245453,20.3353479 65.5604415,19.8656669 C65.9308217,19.6295551 66.2278902,20.2950272 65.8599421,20.5296861 Z M71.9691307,17.2913213 C71.9649613,16.8205506 71.8388375,15.4351189 71.1331694,16.2629634 C70.9486742,16.4794598 70.8906503,16.7965762 70.8652866,17.0966198 C70.8399228,17.3970267 70.8378381,17.7076046 70.7349933,17.9862166 C70.4987283,18.6248083 69.8073056,18.8838049 69.2051772,18.8394885 C68.9654377,18.8216893 68.723266,18.7664755 68.517229,18.6266246 C68.317446,18.4904062 68.1635263,18.2837175 68.013776,18.0802981 C67.6496498,17.5873692 67.2855237,17.0937138 66.9213976,16.6004217 C66.2952952,15.7525985 64.9590079,16.0312105 64.056684,16.1067663 C63.0167703,16.1932196 61.9671281,16.4681991 61.0880832,17.1445687 C60.9994838,17.2128595 60.9126217,17.2847828 60.8254121,17.3567061 C60.613121,17.5321554 60.3994401,17.7057884 60.156921,17.8154896 C59.339027,18.1845506 58.3720776,17.6992499 57.8502098,16.8964696 C57.6111651,16.5284984 57.3943572,16.0595439 56.9993082,15.9785394 C56.6900789,15.9149708 56.3752905,16.1358262 56.2005239,16.4369596 C56.0257572,16.7377298 55.9649537,17.1049745 55.9260395,17.4627748 C55.783933,18.765749 55.8881676,20.1228472 56.364867,21.3113979 C57.3985266,23.8890128 59.6176808,24.3198261 61.8656731,24.3866639 C62.7544466,24.4128178 63.6432201,24.4389718 64.5316462,24.4651257 C66.1563158,24.5134378 67.8747965,24.5359593 69.2903021,23.6078581 C70.5386849,22.7890948 71.3284355,21.3244749 71.6984683,19.7650469 C71.889565,18.9600872 71.9757322,18.1231615 71.9691307,17.2913213 L71.9691307,17.2913213 Z" id="Fill-96" fill="#191718"></path>
                    <path d="M72.4302173,1.09005948 C72.4420873,0.801494454 68.6935458,0.398265535 68.389335,0.35600271 C65.5418951,-0.0406442933 62.9386376,-0.412002885 60.2739954,1.04363966 C57.9976713,2.28727524 56.4810263,4.24452901 56.0109749,6.87313815 C55.5619503,9.38431206 56.1947901,12.7293107 57.4984537,14.9030749 C57.5238893,14.229641 57.2295137,12.6219216 57.4140072,11.9900577 C57.5394899,11.3540368 57.7836725,10.747115 58.1058578,10.192502 C58.7498893,9.08431529 59.7072884,8.17393247 60.7925442,7.54587918 C62.5225099,6.54473521 64.4993712,6.07187656 66.4596145,5.89451126 C68.2553738,5.73204188 69.9253495,5.96402916 71.6624371,6.54912679 C72.4970667,6.83007065 72.477168,7.03714439 73.0337007,6.17664556 C73.1320521,6.02491509 72.4142776,1.43751533 72.4302173,1.09005948 Z" id="Fill-97" fill="#191718"></path>
                    <path d="M22.2720841,104.321524 L21.5159475,91.7465689 C21.5365953,91.7177534 21.5572431,91.6889379 21.5778909,91.6601223 L22.3350955,104.247529 C22.3140917,104.272075 22.2930879,104.296622 22.2720841,104.321524" id="Fill-103" fill="#5975AB"></path>
                    <polyline id="Fill-42" fill="#E8B98A" points="104.611956 12.7336309 106.320826 7.6855497 105.12387 4.55894542 102.307631 4.25802139 101.774742 7.72312048 101.0993 7.21859862 99.8799487 7.55101054 100.838366 10.8314761 101.214125 12.7740642 104.611956 12.7336309"></polyline>
                    <g id="Car" transform="translate(92.164566, 100.723007) rotate(15.000000) translate(-92.164566, -100.723007) translate(12.664566, 44.723007)">
                        <g id="Group-8">
                            <path d="M1.23936816,81.0110568 L5.82916544,69.1837211 L6.08108928,69.066503 C6.09225047,67.8693621 6.10341165,66.6722211 6.11457283,65.4750801 C6.17356765,59.1554144 6.23224359,52.8357486 6.29123841,46.5160829 C6.34289874,40.9581766 4.63268664,32.295729 10.7812228,29.3848661 L69.2192629,1.72171561 C75.7099691,-1.35091461 83.4998369,-0.251718668 89.2319015,4.54569184 L109.190967,21.249426 L110.167729,20.7963512 L132.691315,17.639046 C141.167755,17.7167701 148.859405,22.5707359 152.513576,30.1488373 L158.004878,41.5360523 L9.62970765,111.773061 L1.81751743,95.5720065 C-0.385700063,91.0030291 -0.594892519,85.7373782 1.23936816,81.0110568" id="Fill-98" fill="#4E6279"></path>
                            <path d="M69.047849,49.6769162 C68.614028,49.6769162 68.1972941,49.427434 67.9979453,49.0008581 L67.554948,48.0546352 C67.2780747,47.4629227 67.5236218,46.7535788 68.102999,46.4708106 L73.0414698,44.0613032 C73.2031638,43.9824513 73.3740342,43.9449643 73.5420567,43.9449643 C73.9758777,43.9449643 74.3922951,44.1941234 74.5919604,44.6210225 L75.0349577,45.5672454 C75.3115146,46.1589578 75.0662839,46.8683018 74.4869067,47.1510699 L69.5484359,49.5605773 C69.3864255,49.6394292 69.2158715,49.6769162 69.047849,49.6769162" id="Fill-115" fill="#879EB8"></path>
                        </g>
                        <g id="Group-7" transform="translate(99.234771, 43.944964)">
                            <g id="Group-4" transform="translate(4.817222, 0.000000)">
                                <path d="M1.41476645,20.5059908 C4.85487235,27.6451689 13.4803148,30.6678876 20.6801881,27.2567819 C27.8803801,23.8456763 30.9284784,15.2929466 27.4883725,8.15376854 C24.0482666,1.01459047 15.4228241,-2.00812824 8.22295084,1.40297743 C1.02307754,4.81376708 -2.02502074,13.3664967 1.41476645,20.5059908" id="Fill-109" fill="#191718"></path>
                                <path d="M20.89553,19.4190387 C23.9960815,16.1536945 23.8401309,11.01473 20.5473465,7.94031387 C17.2545621,4.86589775 12.0715934,5.02053375 8.97136022,8.28556241 C5.87080874,11.5505911 6.02644102,16.6898712 9.31954369,19.7639717 C12.6120098,22.8383878 17.7949785,22.6840674 20.89553,19.4190387" id="Fill-110" fill="#F7F7F7"></path>
                                <path d="M14.1269174,21.9724822 C12.8198324,21.9724822 11.5120786,21.3823465 10.5978882,20.3433075 C11.2342102,20.5946341 11.9026325,20.7073233 12.5760706,20.7073233 C13.5454334,20.7073233 14.5248277,20.4737897 15.4316618,20.0838257 C16.519729,19.6167586 17.5231984,18.9372871 18.4671486,18.1829366 C18.8125614,17.9064031 20.2019035,16.7928557 20.2323319,16.2405303 C20.1453936,17.9412478 19.3024257,19.5748708 18.0240972,20.5204964 C17.5496143,20.8719089 17.0243059,21.1299079 16.4943162,21.3638121 C15.9934174,21.5843716 15.4828217,21.7863967 14.9521632,21.8920428 C14.6796448,21.9457926 14.4034483,21.9724822 14.1269174,21.9724822" id="Fill-111" fill="#B3B3B3"></path>
                            </g>
                            <path d="M2.34132313,23.8831328 C1.89232988,23.2824677 1.49730523,22.6348657 1.16327469,21.9409611 C-2.12210412,15.1116461 1.78950212,6.45496448 9.90044071,2.60645805 C10.449707,2.34576812 11.0040827,2.11425517 11.5613325,1.91065062 C5.34791736,5.71792872 2.89793426,13.645186 6.11657082,20.3359103 C6.34458019,20.809719 6.59462409,21.2644993 6.86606382,21.7015196 L2.34132313,23.8831328" id="Fill-107" fill="#879EB8"></path>
                        </g>
                        <g id="Group-10" transform="translate(13.488221, 5.731952)">
                            <g id="Group-9">
                                <path d="M40.4646639,38.7767798 L1.56723217,57.3195187 L0.00609186737,31.3982845 C-0.0718537971,30.1079049 0.603569246,28.9248189 1.7231235,28.391208 L29.215991,15.285205 L40.4646639,38.7767798" id="Fill-99" fill="#CBEAFF"></path>
                                <path d="M35.647442,11.5530657 L57.9919261,1.22609576 C62.7271599,-0.962004678 68.409951,-0.179349852 72.5916454,3.23735818 L87.6734384,15.5607769 L46.9278396,34.3917112 L35.647442,11.5530657" id="Fill-100" fill="#CBEAFF"></path>
                                <path d="M0.41600756,38.2130125 L0.00581976013,31.1294298 C-0.0281602943,30.5452947 0.0877359628,29.9835052 0.325292951,29.4947327 C0.60926912,29.0204376 1.0158162,28.6320633 1.51520164,28.3846871 L10.5978882,23.8831328 C7.55363936,28.2226022 4.45022885,32.5186391 1.3850459,36.8423721 C1.06162859,37.2987277 0.739121471,37.7560275 0.41600756,38.2130125" id="Fill-102" fill="#AEDEFF"></path>
                                <path d="M1.65930794,57.3195187 L0.963444378,46.0916956 C1.74862188,45.029617 2.53707095,43.9707118 3.32944591,42.9146624 C8.77301607,35.6587653 14.3412332,27.7082493 19.6451072,20.3562035 L19.6503417,20.3539823 L28.9033314,16.2405303 C25.1864974,24.3976233 19.5227503,32.74035 14.5578113,40.1907657 C11.5734825,44.6688213 8.43211818,49.0504108 5.08955213,53.2844454 C4.01189602,54.6495669 2.83641987,55.9810523 1.65930794,57.3195187" id="Fill-104" fill="#AEDEFF"></path>
                                <path d="M47.2087745,35.3470365 L47.2087745,35.3470365 L54.6048973,31.7127028 C54.6045874,31.7130216 54.6045874,31.7130216 54.6045874,31.7130216 L47.2087745,35.3470365 M72.2583284,3.26639025 L72.1414757,3.16469266 C72.0280325,3.06618309 71.9139695,2.97022393 71.7983566,2.87617757 C71.9139695,2.97022393 72.0283425,3.06650189 72.1414757,3.16469266 L72.2583284,3.26639025" id="Fill-105" fill="#5975AB"></path>
                            </g>
                            <path d="M47.3319736,34.3917112 L47.3319736,34.3917112 L45.2818858,30.2245445 C46.7984899,27.4420828 48.1416399,24.5682604 49.841299,21.8836852 C51.9288299,18.5866203 54.1984556,15.386199 56.5183255,12.2398482 C58.8679578,9.05372138 61.2579135,5.84024849 63.9058102,2.8787944 C64.7785216,1.90241573 65.6800354,0.953072369 66.5757888,0 C68.7548471,0.400868391 70.8647798,1.31633993 72.7078107,2.73087707 C72.7103709,2.73274158 72.7129311,2.73460608 72.7154913,2.73678134 C72.7170914,2.73802434 72.7190116,2.73926734 72.7206117,2.7408211 C72.8399815,2.83249255 72.9577511,2.92602851 73.0748807,3.02205047 L73.1955306,3.12117994 L73.2217728,3.14293249 C70.9691084,7.00618508 68.6793209,10.8511034 66.4586592,14.7227462 C63.1739103,20.4489492 58.9655658,25.5831721 54.9681186,30.8494641 L47.3319736,34.3917112" id="Fill-106" fill="#AEDEFF"></path>
                        </g>
                        <g id="Group-6" transform="translate(23.122665, 80.247326)">
                            <path d="M2.42252966,23.8831328 C1.96508197,23.2769469 1.56166353,22.6234926 1.21947825,21.9246861 C-2.1496551,15.047127 1.70181215,6.40402754 9.82224543,2.61967733 C10.3965928,2.35203572 10.9774891,2.11569348 11.5613325,1.91065062 C5.23532542,5.75919649 2.74932479,13.7127515 6.03954269,20.4293423 C6.27301456,20.9061788 6.53039028,21.3654492 6.80839536,21.8052374 L2.42252966,23.8831328" id="Fill-108" fill="#879EB8"></path>
                            <g id="Group-3" transform="translate(3.853778, 0.000000)">
                                <path d="M1.41497128,20.5062247 C4.85477185,27.645422 13.4802479,30.6678329 20.6804679,27.256718 C27.8803692,23.8456031 30.9284794,15.2931664 27.4883601,8.15365305 C24.0485595,1.01445569 15.4230835,-2.00795515 8.22286344,1.4028437 C1.02296213,4.8142746 -2.02514801,13.3667113 1.41497128,20.5062247" id="Fill-112" fill="#191718"></path>
                                <path d="M20.8954155,20.3742232 C23.995967,17.1092282 23.8403347,11.9703165 20.547232,8.89561646 C17.2547659,5.82123197 12.0717972,5.97586638 8.97124575,9.24086145 C5.87069427,12.5058565 6.02664482,17.6450837 9.31942922,20.7194682 C12.6122136,23.7938527 17.794864,23.6392183 20.8954155,20.3742232" id="Fill-113" fill="#F7F7F7"></path>
                                <path d="M15.0902393,22.9278075 C13.783534,22.9278075 12.4754913,22.3380425 11.5613325,21.2986328 C12.1976325,21.5499594 12.8660316,21.6626486 13.5394463,21.6626486 C14.5091099,21.6626486 15.4884701,21.429115 16.3952728,21.0395217 C17.4833022,20.5720839 18.4864025,19.8926124 19.4303198,19.1382619 C19.7757207,18.8620991 21.1650146,17.7481811 21.1957763,17.1958556 C21.1085066,18.8969438 20.2659024,20.5301961 18.9872839,21.4761924 C18.5128175,21.8272342 17.9878616,22.0852332 17.457556,22.3191374 C16.9570089,22.5404383 16.4460965,22.7420927 15.9157908,22.8473681 C15.6429476,22.9014886 15.3667606,22.9278075 15.0902393,22.9278075" id="Fill-114" fill="#B3B3B3"></path>
                            </g>
                        </g>
                    </g>
                    <polyline id="Fill-117" fill="#E8B98A" points="50.8050117 72.3863636 47.2794547 73.647217 48.6139705 79.9174381 52.3898674 80.9024064 54.793811 78.4855752 52.62735 76.405676 53.2883683 76.1697062 54.1796842 76.6291233 54.6104049 75.6969841 50.8050117 72.3863636"></polyline>
                    <path d="M55.6873729,26.7784657 C56.8377092,26.5430553 58.0199197,26.5444442 59.1494841,26.8722131 C59.7482893,27.0458196 60.329904,27.3135207 60.7811567,27.7333011 C61.2564046,28.1756503 61.5626118,28.7641761 61.7749871,29.3690209 C64.5086476,37.1597833 56.0906352,45.9699626 51.0523626,51.0455204 C47.8305614,54.2905719 50.6412213,60.4417951 51.385072,64.4413401 C51.7274511,66.28261 53.5800942,71.6192718 52.3703071,72.8418083 C52.1142391,73.1008291 47.9190212,74.4448901 47.9508954,74.5153743 C46.000839,70.3186124 44.0507825,66.1218504 42.1003679,61.9250884 C40.6599405,58.8251719 38.6840982,56.0137893 37.3482468,52.8458191 C36.841841,51.6448098 36.3870069,50.3542195 36.5972334,49.0730041 C36.7601857,48.079628 37.3077774,47.1904159 37.8446249,46.3300224 C40.5259973,42.0301382 43.4140148,37.9708725 46.586035,34.0011878 C48.1722241,32.0158246 49.749818,29.9693519 51.8413386,28.488489 C52.9805727,27.6815663 54.311052,27.0607497 55.6873729,26.7784657" id="Fill-118" fill="#639FC9"></path>
                </g>
                <g id="C45-Staff" transform="translate(200.000000, 0.000000)">
                    <path d="M3.05394028,37.016674 C3.17837314,36.9999333 3.30727664,36.9831927 3.42723885,37.0017934 C4.54713456,37.1725484 5.02847364,37.9314596 6.05523098,38.4009428 C6.21244854,38.4727418 6.44380424,38.4381444 6.68633655,38.403547 C7.15165582,38.3373282 7.65795598,38.2711095 7.75817286,38.9541296 C7.81442843,39.3380493 7.81927163,40.2978487 7.93141022,41.1166543 C8.09496119,42.3108233 9.02485463,43.7255974 9.97114043,44.7129259 C13.6877338,48.5923011 18.3588091,51.3533984 23.065277,53.9403926 C23.3335155,54.0877106 23.615911,54.2376328 23.92215,54.2450731 C24.4701761,54.2580936 24.9127696,53.8254399 25.2931467,53.4311037 C27.058305,51.6026487 28.9933477,49.9386244 31.0662352,48.467304 C32.9155906,47.1540901 34.9314774,45.9725696 37.1671707,45.5841857 C39.4024915,45.1954297 41.9045605,45.7259235 43.430167,47.4025963 C44.5727884,48.6585198 45.0515196,50.4851148 44.6718876,52.1390947 C43.730445,56.240563 37.6660198,57.2974584 34.2884501,58.5753308 C31.093059,59.7843804 27.8123532,60.7702209 24.4791174,61.5213197 C24.0674458,61.6139515 23.6416172,61.7036072 23.2265926,61.6273441 C22.7843717,61.5458727 22.399524,61.28509 22.0299509,61.0291435 C17.2713255,57.7353204 12.8304883,54.0400927 8.44180846,50.2366086 C7.2358529,49.1908737 6.73365084,47.6455223 5.60965704,46.688699 C4.89211907,46.0785939 3.88995025,46.1143074 3.08560733,45.6883499 C2.28983313,45.2664846 1.35248861,44.5098056 0.769442445,43.8252975 C-0.381002649,42.474882 0.0407278713,40.6929289 0.256063773,39.0999595 C0.309711472,38.7030192 0.344731497,38.4351683 0.563047827,38.1297437 C0.91846383,37.6338474 1.48511765,37.4597442 2.04133997,37.2670403 C2.37067723,37.1528316 2.71044599,37.064292 3.05394028,37.016674" id="Fill-4" fill="#E8B98A"></path>
                    <path d="M34.3329249,57.5369675 C32.2219499,54.8657429 30.110975,52.1945183 28,49.5232938 C28.135642,49.6946314 39.4487778,39.1336637 40.1436651,38.5281961 C42.7957256,36.2175644 45.5608212,33.8434744 48.928523,32.8598695 C56.1190314,30.7593971 62.2614645,38.5237166 57.905355,44.9744477 C53.1760447,51.97764 45.3947894,57.7504863 37.4445375,60.442988 C37.2718349,60.501967 37.0891258,60.5598261 36.9101229,60.5239908 C36.6647813,60.4750905 36.4883726,60.2649313 36.3323473,60.067837 C35.6659967,59.2242138 34.9992755,58.3805906 34.3329249,57.5369675" id="Fill-5" fill="#29ADA3"></path>
                    <polyline id="Fill-6" fill="#C67A6D" points="44.6956813 161.120954 44.8 169.210348 40.4357233 169.273885 40.32 160.305732 44.6956813 161.120954"></polyline>
                    <path d="M41.4516329,168.152866 L45.7567566,169.752035 L47.04,171.30455 L46.8227655,174.984013 L35.185692,176 C34.2026203,174.39125 34.8421495,172.208482 36.4826314,171.57573 L37.0243861,171.366617 L41.4516329,168.152866" id="Fill-7" fill="#2EB9AE"></path>
                    <polyline id="Fill-8" fill="#C67A6D" points="79.7415962 152.458599 82.88 160.514779 78.5196692 162.547771 75.04 153.615978 79.7415962 152.458599"></polyline>
                    <path d="M78.3744446,162.709019 C78.528642,162.532886 78.7083592,162.366138 78.9168312,162.209134 C79.4340574,161.819693 83.603138,159.542958 83.9607753,160.569077 C84.0190037,160.735826 84.0006726,160.919177 83.9801848,161.094949 C83.6369249,164.048062 82.9647824,166.959669 81.9810102,169.755418 C81.5601124,170.951533 80.9217568,172.276139 79.7219644,172.574627 C79.1957524,172.705283 78.6433016,172.608554 78.1156517,172.485477 C77.3371166,172.303931 76.5711617,172.064274 75.8256946,171.769396 C75.5536027,171.66184 75.2638985,171.529018 75.1226408,171.266262 C74.8397658,170.739307 75.3329099,170.115263 75.848339,169.831212 C76.363768,169.547523 76.9931378,169.343599 77.2443825,168.800402 C77.357245,168.556415 77.3734195,168.278861 77.3874375,168.009248 C77.4923923,166.008263 77.1627909,164.087043 78.3744446,162.709019" id="Fill-9" fill="#2EB9AE"></path>
                    <path d="M50.2596143,122.23971 C51.8334582,129.708636 56.3333685,135.074154 61.1400825,140.566428 C66.6407924,146.851674 71.8147858,153.443745 76.6325624,160.305732 C78.7152875,159.404645 80.7976437,158.503557 82.88,157.602842 C81.1391103,147.106678 76.3412464,137.47693 72.6234643,127.550424 C70.039602,120.652274 67.9465518,113.358197 67.8329754,105.903438 C67.776556,102.19619 68.6420227,98.8058328 69.105547,95.2003629 C69.6796976,90.7336961 69.7128855,86.1555583 70.2313543,81.6683867 C70.4054064,80.1637154 70.5046013,78.3839084 69.3894879,77.4052755 C68.8927757,76.9694577 68.2386053,76.7860339 67.6006602,76.6577864 C43.9207256,71.8995801 47.2664346,108.037789 50.2596143,122.23971" id="Fill-10" fill="#191718"></path>
                    <path d="M68.32,84.0306168 C68.3322071,79.5133787 67.8039255,75.1592889 66.9946975,71.8387194 C60.321032,71.4659683 52.7793188,72.2367418 46.1790867,73.6348372 C39.7282786,75.0013435 35.7051548,76.4674484 35.6587566,83.7704715 C35.5729017,97.2088367 30.5421701,108.656347 28.3698586,121.573306 C27.107609,129.079986 29.2886887,135.793966 31.7054126,142.746164 C34.4710363,150.701781 36.8267485,158.812369 38.757205,167.031847 C40.9927203,167.018097 43.2278703,167.003974 45.4633857,166.990224 C47.6689431,156.626777 46.7592466,145.861962 46.946666,135.247661 C47.0770924,127.871425 47.8004655,120.322379 50.3965714,113.402141 C53.250242,105.79512 57.3603168,108.822468 62.0772213,104.411146 C66.6633341,100.122093 68.2982305,91.8327473 68.32,84.0306168" id="Fill-11" fill="#191718"></path>
                    <path d="M60.6714837,30.9504704 C61.4034593,31.5461691 62.0468865,32.2651669 62.6823299,32.9771085 C63.2520878,33.6151449 63.8214828,34.2531812 64.3908778,34.8908461 C66.363982,37.1009476 67.3383769,40.3724621 68.1839411,43.1960886 C72.6338591,58.0532734 74.2349877,78.4377544 71.3451902,93.9626863 C60.3851532,94.9572505 47.6995119,92.0545194 36.7637894,90.4857968 C35.7001203,90.3327869 34.4960078,90.082846 33.9440322,89.1157641 C33.6094355,88.5300928 33.6,87.8084953 33.6,87.1251502 C33.6010887,77.2697543 35.5839913,66.6771627 37.4438698,56.9614068 C38.2288292,52.8617077 39.1956031,48.7965472 40.4356431,44.8212615 C41.7482637,40.6131185 43.2281826,36.0688736 46.2997945,32.8853769 C49.586971,29.4790502 55.8800739,27.7970557 59.9946694,30.4561594 C60.2294677,30.6076837 60.4544677,30.7740634 60.6714837,30.9504704" id="Fill-12" fill="#2EB9AE"></path>
                    <path d="M59.4685644,32.6761449 C59.6606019,31.3863744 59.8529917,30.0958888 60.0453815,28.8057608 C60.303663,28.6774271 60.5496119,28.5347945 60.7768855,28.3835825 C65.2152406,25.4329821 72.6599505,9.58932293 60.8293875,6.04281129 C50.0872716,2.823032 50.6457658,18.2098378 52.7423212,24.625803 C53.101026,25.7236094 53.5805911,26.7610025 54.290601,27.6604102 C54.7765086,28.2759825 54.8853885,28.1590881 54.8156208,28.8722511 C54.7483196,29.5618208 54.0879927,30.3429042 53.9378864,31.0710812 C53.7779139,31.8471599 53.8381679,32.7072453 54.2708687,33.36071 C54.5361975,33.7610822 54.9234436,34.0592166 55.3364122,34.2869283 C55.9925107,34.6490507 56.7550227,34.8485218 57.4844126,34.7044593 C58.3519284,34.5335862 59.3304384,33.6002184 59.4685644,32.6761449" id="Fill-13" fill="#E8B98A"></path>
                    <path d="M49.8851416,19.6034654 C50.504191,21.7859332 51.371391,23.870064 52.4555568,25.7834395 C52.3971684,21.7455312 52.8121903,17.6988564 53.6846983,13.7939697 C53.7513805,13.4962911 53.8164039,13.1585918 53.6793903,12.8963603 C53.551334,12.6516617 53.2912403,12.5598044 53.0527106,12.4992015 C48.7933454,11.4136849 48.8056203,15.7992024 49.8851416,19.6034654" id="Fill-14" fill="#191718"></path>
                    <path d="M62.72,25.0272371 C63.4569055,26.1522273 65.0698025,25.8498838 66.2057311,25.2296823 C70.8710115,22.6822775 73.6173342,16.5491318 72.5825916,10.9896441 C71.7162539,6.33756529 66.318001,2.84907378 65.2260508,8.61252037 C64.8391843,10.6558932 65.9847667,13.4878566 65.7223268,15.7552436 C65.3476169,18.9947464 63.9574721,22.0934834 62.72,25.0272371" id="Fill-15" fill="#191718"></path>
                    <path d="M51.4059405,2.46202359 C50.8707879,2.68901053 50.3261183,2.92824634 49.7525313,3.16939604 C48.5647268,3.66777209 47.7045294,3.8361941 46.4797548,3.08901281 C46.1294531,2.87542308 43.7831275,0.494548271 44.3475634,0 C40.6044236,3.27733924 43.6831982,8.06167271 45.0869671,11.4484863 C46.0331842,13.7309873 46.2279183,16.9535894 48.354619,18.4452725 C50.6939899,20.085856 52.2987156,18.0112031 54.4228541,17.081437 C56.2966202,16.261528 58.3219275,15.8175064 60.2282714,15.0875501 C63.3916015,13.8764427 68.0985284,11.7485837 67.0509178,7.23793596 C65.8272413,1.96938921 60.8542022,0.656463069 56.3866664,1.05876201 C54.4777603,1.2310118 52.9832131,1.7925461 51.4059405,2.46202359" id="Fill-16" fill="#191718"></path>
                    <path d="M68.32,167.031847 C67.7802388,167.031847 67.2320438,166.96803 66.687299,166.833782 L49.28,162.547771 L66.687299,166.833782 C67.2320438,166.96803 67.7806221,167.031847 68.32,167.031847" id="Fill-30" fill="#4F586B"></path>
                    <polyline id="Fill-36" fill="#DEDEDE" points="67.2 174.878981 67.2 174.878981 68.32 168.152866 67.2 174.878981"></polyline>
                </g>
                <path d="M176,135 L160.830006,131.273511 C160.539649,131.202282 160.262226,131.110184 160,131 C160.262226,131.110184 160.539649,131.202282 160.830006,131.273511 L176,135" id="Fill-34" fill="#474F60"></path>
                <path d="M176,135 L160.830006,131.274807 C160.539649,131.203602 160.262226,131.111536 160,131.001391 L160.000323,131 L176,135" id="Fill-35" fill="#474F60"></path>
                <path d="M161,131 C158.753229,129.928752 157.526083,127.435022 158.171476,125 C157.526083,127.434685 158.753575,129.928752 161,131" id="Fill-29" fill="#D9E9F5"></path>
                <path d="M161.000069,131 L161.000069,131 C161.000069,131 160.999759,131 161.000069,131" id="Fill-31" fill="#4F586B"></path>
                <g id="Cash" transform="translate(203.219597, 68.134150) scale(-1, 1) rotate(20.000000) translate(-203.219597, -68.134150) translate(163.219597, 25.134150)">
                    <polyline id="Fill-3" fill="#FFFFFF" points="79.6499082 31.3216346 25.3751136 83.0469231 -8.52651283e-14 56.0970913 54.2749619 4.37197115 79.6499082 31.3216346"></polyline>
                    <path d="M25.4401758,80.3699279 L76.6610589,31.5553606 L54.1112192,7.2778125 L2.83932326,56.0619231 L25.4401758,80.3699279 Z M77.3949744,31.5779087 L25.4177636,81.1131731 L2.10490594,56.0392067 L2.29306797,55.8601683 L54.1339659,6.53473558 L77.3949744,31.5779087 L77.3949744,31.5779087 Z" id="Fill-4" fill="#2EB9AE"></path>
                    <path d="M46.8658937,13.7422115 C46.8658937,13.7422115 53.7981175,9.48197115 60.7997522,16.3463462 L72.4363613,28.9909375 C72.4363613,28.9909375 74.4964429,31.1789423 72.8442966,34.3780769 L71.0227209,37.0163702 L77.0280167,31.5664663 L54.1225925,6.90627404 L46.8658937,13.7422115" id="Fill-5" fill="#2EB9AE"></path>
                    <path d="M9.60780426,49.3705288 C9.60780426,49.3705288 5.00427379,56.1039904 11.4384118,63.5090144 L23.3586856,75.8833654 C23.3586856,75.8833654 25.4187671,78.0713702 28.6834202,76.5845433 L31.4006472,74.897476 L25.6666393,80.635625 L2.43021718,56.290601 L9.60780426,49.3705288" id="Fill-6" fill="#2EB9AE"></path>
                    <path d="M26.3443571,55.1391346 C27.7790717,56.6628125 27.7916158,58.9941827 26.372456,60.3465625 C24.9534633,61.6989423 22.6399903,61.5602885 21.2054429,60.0367788 C19.7708956,58.513101 19.7583514,56.1815625 21.1773441,54.8291827 C22.5965039,53.4768029 24.9098098,53.6154567 26.3443571,55.1391346" id="Fill-7" fill="#5A7E6F"></path>
                    <polyline id="Fill-8" fill="#5A7E6F" points="27.0849629 68.3314423 26.3448589 69.0364904 24.3296017 66.8961058 25.0695384 66.1908894 27.0849629 68.3314423"></polyline>
                    <polyline id="Fill-9" fill="#5A7E6F" points="28.2875273 67.1853606 27.5474233 67.8904087 25.5319989 65.7501923 26.2721029 65.0448077 28.2875273 67.1853606"></polyline>
                    <polyline id="Fill-10" fill="#5A7E6F" points="29.4899245 66.0392788 28.7499878 66.7444952 26.7345633 64.6041106 27.4746673 63.8988942 29.4899245 66.0392788"></polyline>
                    <polyline id="Fill-11" fill="#5A7E6F" points="30.692489 64.8933654 29.952385 65.5984135 27.9371278 63.4581971 28.6770645 62.7528125 30.692489 64.8933654"></polyline>
                    <polyline id="Fill-12" fill="#5A7E6F" points="31.8948862 63.7472837 31.1549494 64.4525 29.139525 62.3121154 29.879629 61.606899 31.8948862 63.7472837"></polyline>
                    <polyline id="Fill-13" fill="#5A7E6F" points="33.0974506 62.6013702 32.3575139 63.3064183 30.3420894 61.1660337 31.0821934 60.4608173 33.0974506 62.6013702"></polyline>
                    <polyline id="Fill-14" fill="#5A7E6F" points="34.2998478 61.4552885 33.5599111 62.1605048 31.5446539 60.0201202 32.2845906 59.3149038 34.2998478 61.4552885"></polyline>
                    <polyline id="Fill-15" fill="#5A7E6F" points="35.5024123 60.309375 34.7624755 61.0144231 32.7470511 58.8740385 33.4871551 58.1688221 35.5024123 60.309375"></polyline>
                    <polyline id="Fill-16" fill="#5A7E6F" points="48.1136171 26.9925721 47.3736803 27.6977885 46.7437975 27.02875 47.4839015 26.3237019 48.1136171 26.9925721"></polyline>
                    <polyline id="Fill-17" fill="#5A7E6F" points="49.3161815 25.8464904 48.5760775 26.5517067 47.9463619 25.8828365 48.6862987 25.1776202 49.3161815 25.8464904"></polyline>
                    <polyline id="Fill-18" fill="#5A7E6F" points="50.5185787 24.7005769 49.778642 25.405625 49.1489264 24.7367548 49.8888631 24.0315385 50.5185787 24.7005769"></polyline>
                    <polyline id="Fill-19" fill="#5A7E6F" points="51.7211432 23.5544952 50.9812065 24.2597115 50.3513236 23.5908413 51.0912603 22.885625 51.7211432 23.5544952"></polyline>
                    <polyline id="Fill-20" fill="#5A7E6F" points="52.9235404 22.4084135 52.1836037 23.1136298 51.5538881 22.4447596 52.2938248 21.7395433 52.9235404 22.4084135"></polyline>
                    <polyline id="Fill-21" fill="#5A7E6F" points="54.1261049 21.2625 53.3861681 21.9677163 52.7562853 21.2988462 53.4963893 20.5936298 54.1261049 21.2625"></polyline>
                    <polyline id="Fill-22" fill="#5A7E6F" points="55.3286693 20.1164183 54.5887326 20.8216346 53.9588497 20.1527644 54.6987865 19.4475481 55.3286693 20.1164183"></polyline>
                    <polyline id="Fill-23" fill="#5A7E6F" points="56.5310665 18.9703365 55.7911298 19.6757212 55.1612469 19.006851 55.9013509 18.3016346 56.5310665 18.9703365"></polyline>
                    <polyline id="Fill-24" fill="#5A7E6F" points="59.8676393 47.5570913 42.6584234 63.9577885 41.4045117 62.6259375 58.6137275 46.2254087 59.8676393 47.5570913"></polyline>
                    <path d="M28.7314225,31.9274038 C24.4734411,35.9852163 26.0051637,44.592524 32.1459361,51.1143029 C38.2867086,57.6360817 46.7466408,59.6406731 51.0046222,55.5826923 C55.2626035,51.5248798 53.7307137,42.9175721 47.5899412,36.3957933 C41.4491688,29.8740144 32.9894038,27.8694231 28.7314225,31.9274038 Z M51.5420129,56.1534615 C49.3056445,58.2847596 45.9822848,58.9756731 42.1844224,58.0983173 C38.4440957,57.2344231 34.6773427,54.9461298 31.5786067,51.6549519 C28.4797035,48.363774 26.4124299,44.456226 25.7572916,40.6518269 C25.0921179,36.7892067 25.957496,33.4879327 28.1940317,31.3566346 C30.4304002,29.2251683 33.7535925,28.5345913 37.551455,29.4117788 C41.2919489,30.2756731 45.0585347,32.5639663 48.1572707,35.8551442 C51.2561739,39.1463221 53.3234474,43.0538702 53.9785858,46.8582692 C54.6437595,50.7210577 53.7785487,54.0219952 51.5420129,56.1534615 L51.5420129,56.1534615 Z" id="Fill-25" fill="#5A7E6F"></path>
                    <path d="M47.8719334,36.1871394 C54.1710965,42.8770192 55.6931183,51.7162019 51.2717286,55.9298317 C46.8501718,60.1434615 38.1595947,58.1363462 31.8605989,51.4464663 C25.561603,44.7565865 24.0395813,35.9174038 28.4609709,31.703774 C32.8823605,27.489976 41.5731048,29.4972596 47.8719334,36.1871394" id="Fill-26" fill="#AEBA8F"></path>
                    <polyline id="Fill-27" fill="#FFFFFF" points="77.3698862 25.6124279 31.726962 85.1814183 2.5039767 62.5180769 48.1469009 2.94891827 77.3698862 25.6124279"></polyline>
                    <path d="M31.3787368,82.5269712 L74.453291,26.3097356 L48.4330744,5.84516827 L5.30349323,62.0401923 L31.3787368,82.5269712 Z M75.1818544,26.2173558 L31.4712289,83.2646635 L4.57442808,62.1324038 L48.3412513,5.10747596 L75.1818544,26.2173558 L75.1818544,26.2173558 Z" id="Fill-28" fill="#2EB9AE"></path>
                    <path d="M42.2722313,13.3620913 C42.2722313,13.3620913 48.4638494,8.07153846 56.4389089,13.7600481 L69.8843824,24.4357212 C69.8843824,24.4357212 72.2568965,26.2755769 71.1177218,29.6939663 L69.7251555,32.5846635 L74.8175727,26.2634615 L48.3870792,5.47632212 L42.2722313,13.3620913" id="Fill-29" fill="#2EB9AE"></path>
                    <path d="M10.9582223,54.3733413 C10.9582223,54.3733413 7.44870766,61.7438702 14.9465883,68.0553125 L28.6305676,78.4195192 C28.6305676,78.4195192 31.0030818,80.259375 33.9991231,78.2812019 L36.4231518,76.190625 L31.6433344,82.7537981 L4.93469565,62.3297837 L10.9582223,54.3733413" id="Fill-30" fill="#5A7E6F"></path>
                    <path d="M28.3818592,57.4604087 C30.0340055,58.7416106 30.4058137,61.0430288 29.2124482,62.6005288 C28.0190828,64.1580288 25.7124672,64.3819952 24.0603209,63.100625 C22.4081746,61.8192548 22.0361992,59.5181731 23.2295646,57.9606731 C24.42293,56.4030048 26.7297129,56.1792067 28.3818592,57.4604087" id="Fill-31" fill="#5A7E6F"></path>
                    <polyline id="Fill-32" fill="#5A7E6F" points="31.1474229 70.3774279 30.5250666 71.1894952 28.2042342 69.3895192 28.8264234 68.5772837 31.1474229 70.3774279"></polyline>
                    <polyline id="Fill-33" fill="#5A7E6F" points="32.1586475 69.057524 31.5362911 69.8695913 29.2152916 68.0697837 29.8376479 67.2575481 32.1586475 69.057524"></polyline>
                    <polyline id="Fill-34" fill="#5A7E6F" points="33.1698721 67.7376202 32.5475157 68.5498558 30.2266834 66.7498798 30.8490398 65.9378125 33.1698721 67.7376202"></polyline>
                    <polyline id="Fill-35" fill="#5A7E6F" points="34.1810967 66.4178846 33.5589076 67.2301202 31.237908 65.429976 31.8600971 64.6179087 34.1810967 66.4178846"></polyline>
                    <polyline id="Fill-36" fill="#5A7E6F" points="35.1923213 65.098149 34.5701321 65.9103846 32.2491326 64.1104087 32.8714889 63.2980048 35.1923213 65.098149"></polyline>
                    <polyline id="Fill-37" fill="#5A7E6F" points="36.2037131 63.7782452 35.5813567 64.5904808 33.2603571 62.7905048 33.8827135 61.9784375 36.2037131 63.7782452"></polyline>
                    <polyline id="Fill-38" fill="#5A7E6F" points="37.2149377 62.4585096 36.5925813 63.2705769 34.2715817 61.4707692 34.8939381 60.6585337 37.2149377 62.4585096"></polyline>
                    <polyline id="Fill-39" fill="#5A7E6F" points="38.2261622 61.1386058 37.6038059 61.9510096 35.2828063 60.1508654 35.9051627 59.3386298 38.2261622 61.1386058"></polyline>
                    <polyline id="Fill-40" fill="#5A7E6F" points="45.547756 26.2570673 44.9255669 27.0693029 44.2001813 26.5067788 44.8225377 25.6947115 45.547756 26.2570673"></polyline>
                    <polyline id="Fill-41" fill="#5A7E6F" points="46.5591478 24.9373317 45.9367914 25.7495673 45.2115732 25.1870433 45.8337623 24.3748077 46.5591478 24.9373317"></polyline>
                    <polyline id="Fill-42" fill="#5A7E6F" points="47.5703724 23.6175962 46.948016 24.4298317 46.2227977 23.8673077 46.8449869 23.0550721 47.5703724 23.6175962"></polyline>
                    <polyline id="Fill-43" fill="#5A7E6F" points="48.581597 22.2976923 47.9592406 23.1099279 47.2340223 22.5474038 47.8563787 21.7351683 48.581597 22.2976923"></polyline>
                    <polyline id="Fill-44" fill="#5A7E6F" points="49.5928215 20.9779567 48.9704652 21.7901923 48.2452469 21.2276683 48.8676033 20.4154327 49.5928215 20.9779567"></polyline>
                    <polyline id="Fill-45" fill="#5A7E6F" points="50.6040461 19.6582212 49.981857 20.4702885 49.2564715 19.9079327 49.8788278 19.0956971 50.6040461 19.6582212"></polyline>
                    <polyline id="Fill-46" fill="#5A7E6F" points="51.6152707 18.3383173 50.9930816 19.1505529 50.267696 18.5880288 50.8900524 17.7759615 51.6152707 18.3383173"></polyline>
                    <polyline id="Fill-47" fill="#5A7E6F" points="52.6266625 17.0185817 52.0043062 17.8308173 51.2789206 17.2682933 51.901277 16.4560577 52.6266625 17.0185817"></polyline>
                    <polyline id="Fill-48" fill="#2EB9AE" points="60.330267 44.7385817 45.8581815 63.6264663 44.4141006 62.5062981 58.8861861 43.6185817 60.330267 44.7385817"></polyline>
                    <path d="M27.1610639,34.1569712 C23.5802987,38.8303125 26.4206254,47.094351 33.4925073,52.5789183 C40.5643891,58.0634856 49.2312159,58.7234375 52.8119812,54.0500962 C56.3927465,49.3769231 53.5522525,41.1128846 46.4803706,35.6283173 C39.4083216,30.14375 30.7418292,29.4836298 27.1610639,34.1569712 Z M53.4308252,54.5301683 C51.5502084,56.9848798 48.3735316,58.1858173 44.4863549,57.911875 C40.658052,57.6419712 36.5842185,55.969375 33.0154956,53.2015144 C29.4466054,50.4338221 26.8019672,46.8961298 25.568126,43.2401442 C24.3155522,39.5279567 24.6612686,36.1316106 26.5422199,33.6770673 C28.423004,31.2223558 31.5993463,30.0215865 35.486523,30.2953606 C39.3149932,30.5652644 43.3886594,32.2378606 46.9573823,35.0057212 C50.5262725,37.7734135 53.171078,41.3111058 54.4047519,44.9670913 C55.6574929,48.6792788 55.3116093,52.075625 53.4308252,54.5301683 L53.4308252,54.5301683 Z" id="Fill-49" fill="#2EB9AE"></path>
                    <path d="M46.7267375,35.3782692 C53.9809274,41.0041827 56.847346,49.49875 53.1292642,54.3514663 C49.4110152,59.2041827 40.5160524,58.5773798 33.2618624,52.9514663 C26.0076725,47.3257212 23.1412539,38.8309856 26.8595029,33.9782692 C30.5775847,29.1255529 39.4725475,29.7523558 46.7267375,35.3782692" id="Fill-50" fill="#54DFD4"></path>
                    <polyline id="Fill-51" fill="#FFFFFF" points="72.3085784 19.8088221 32.4148824 83.4189663 1.20958917 63.6101442 41.1032852 2.84217094e-14 72.3085784 19.8088221"></polyline>
                    <path d="M31.8209594,80.808774 L69.4697569,20.7780529 L41.6580705,2.85653846 L3.95223896,62.8702644 L31.8209594,80.808774 Z M70.1864452,20.617524 L31.9818588,81.534351 L3.23504892,63.0309615 L41.49784,2.13096154 L70.1864452,20.617524 L70.1864452,20.617524 Z" id="Fill-52" fill="#2EB9AE"></path>
                    <path d="M36.2244527,10.9211779 C36.2244527,10.9211779 41.8959073,5.07012019 50.3658748,9.98189904 L64.7464717,19.3430529 C64.7464717,19.3430529 67.2797181,20.9512019 66.464182,24.4618029 L65.3469177,27.4709615 L69.8280174,20.6976202 L41.5779552,2.49358173 L36.2244527,10.9211779" id="Fill-53" fill="#2EB9AE"></path>
                    <path d="M8.86803478,54.7043269 C8.86803478,54.7043269 6.06049,62.3731971 14.1133232,67.9498077 L28.7024873,76.9784615 C28.7024873,76.9784615 31.2359009,78.5866106 34.0342467,76.3346635 L36.2530533,74.0244952 L32.1054604,81.0096875 L3.612042,63.1935096 L8.86803478,54.7043269" id="Fill-54" fill="#2EB9AE"></path>
                    <path d="M26.5024132,56.1351202 C28.2667877,57.2549519 28.8513444,59.5111058 27.8081741,61.1741106 C26.765171,62.8372837 24.4894976,63.2776442 22.7252904,62.1578125 C20.9610832,61.0379808 20.3763592,58.7819952 21.4195295,57.1188221 C22.4625325,55.455649 24.738206,55.0152885 26.5024132,56.1351202" id="Fill-55" fill="#2EB9AE"></path>
                    <polyline id="Fill-56" fill="#2EB9AE" points="30.4590008 68.7344471 29.9150871 69.6015385 27.4367004 68.0283894 27.9806141 67.1611298 30.4590008 68.7344471"></polyline>
                    <polyline id="Fill-57" fill="#2EB9AE" points="31.3429442 67.325024 30.7988632 68.1922837 28.3204766 66.6191346 28.8643903 65.7517067 31.3429442 67.325024"></polyline>
                    <polyline id="Fill-58" fill="#2EB9AE" points="32.2267204 65.9157692 31.6828066 66.7830288 29.20442 65.2098798 29.7483337 64.3424519 32.2267204 65.9157692"></polyline>
                    <polyline id="Fill-59" fill="#2EB9AE" points="33.1106638 64.5063462 32.5667501 65.3736058 30.0883634 63.8004567 30.6322771 62.9330288 33.1106638 64.5063462"></polyline>
                    <polyline id="Fill-60" fill="#2EB9AE" points="33.9944399 63.0970913 33.4505262 63.964351 30.9721396 62.3912019 31.5160533 61.523774 33.9944399 63.0970913"></polyline>
                    <polyline id="Fill-61" fill="#2EB9AE" points="34.8783834 61.6876683 34.3344696 62.5549279 31.856083 60.9817788 32.3999967 60.114351 34.8783834 61.6876683"></polyline>
                    <polyline id="Fill-62" fill="#2EB9AE" points="35.7623268 60.2784135 35.2182458 61.1456731 32.7398591 59.572524 33.2837728 58.7050962 35.7623268 60.2784135"></polyline>
                    <polyline id="Fill-63" fill="#2EB9AE" points="36.6461029 58.8691587 36.1021892 59.73625 33.6238025 58.163101 34.1677163 57.2958413 36.6461029 58.8691587"></polyline>
                    <polyline id="Fill-64" fill="#2EB9AE" points="40.6866526 23.4508413 40.1427389 24.318101 39.3681803 23.8264183 39.912094 22.9591587 40.6866526 23.4508413"></polyline>
                    <polyline id="Fill-65" fill="#2EB9AE" points="41.570596 22.0414183 41.026515 22.9086779 40.2521237 22.4171635 40.7960375 21.5497356 41.570596 22.0414183"></polyline>
                    <polyline id="Fill-66" fill="#2EB9AE" points="42.4543722 20.6321635 41.9104585 21.4994231 41.1358999 21.0077404 41.6798136 20.1404808 42.4543722 20.6321635"></polyline>
                    <polyline id="Fill-67" fill="#2EB9AE" points="43.3381483 19.2227404 42.7942346 20.0901683 42.0198433 19.5984856 42.563757 18.7310577 43.3381483 19.2227404"></polyline>
                    <polyline id="Fill-68" fill="#2EB9AE" points="44.2220917 17.8134856 43.678178 18.6807452 42.9036195 18.1890625 43.4475332 17.3218029 44.2220917 17.8134856"></polyline>
                    <polyline id="Fill-69" fill="#2EB9AE" points="45.1060352 16.4040625 44.5621214 17.2714904 43.7875629 16.7798077 44.3314766 15.9125481 45.1060352 16.4040625"></polyline>
                    <polyline id="Fill-70" fill="#2EB9AE" points="45.9898113 14.9948077 45.4458976 15.8620673 44.6715063 15.3703846 45.21542 14.503125 45.9898113 14.9948077"></polyline>
                    <polyline id="Fill-71" fill="#2EB9AE" points="46.8737547 13.5855529 46.329841 14.4528125 45.5552825 13.9611298 46.0991962 13.0938702 46.8737547 13.5855529"></polyline>
                    <polyline id="Fill-72" fill="#2EB9AE" points="57.1254913 40.4573077 44.4763196 60.626226 42.9340599 59.6474038 55.5832316 39.4783173 57.1254913 40.4573077"></polyline>
                    <path d="M23.1166674,33.0492548 C19.986822,38.0396154 23.5843128,45.9994231 31.1360496,50.7930769 C38.6877864,55.586899 47.3776945,55.4270433 50.5075399,50.4366827 C53.6372181,45.4464904 50.03956,37.4865144 42.4878232,32.6928606 C34.9362536,27.8990385 26.2463456,28.0588942 23.1166674,33.0492548 Z M51.168365,50.8561779 C49.5245814,53.4773077 46.4738477,54.9725481 42.578141,55.0661058 C38.7416426,55.1584856 34.5298236,53.8771154 30.7190825,51.4580769 C26.9081742,49.0390385 23.9455839,45.7662019 22.3765634,42.2426442 C20.7837927,38.6647356 20.8117243,35.2508894 22.4556751,32.6297596 C24.0996259,30.0086298 27.1501924,28.5135577 31.0457318,28.4198317 C34.8823975,28.3274519 39.0938819,29.6088221 42.9047903,32.0278606 C46.7156986,34.446899 49.6784562,37.7199038 51.2473094,41.2434615 C52.8402473,44.8212019 52.8121485,48.2350481 51.168365,50.8561779 L51.168365,50.8561779 Z" id="Fill-73" fill="#2EB9AE"></path>
                    <path d="M42.709938,32.420601 C50.4561926,37.3379327 54.1013511,45.5247356 50.8514165,50.7067548 C47.6014818,55.8886058 38.6874519,56.103149 30.9410301,51.1858173 C23.1947756,46.2686538 19.5497843,38.0816827 22.7997189,32.8998317 C26.0494863,27.7179808 34.9636835,27.5032692 42.709938,32.420601" id="Fill-74" fill="#8CFFF6"></path>
                </g>
                <polyline id="Fill-27" fill="#E8B98A" points="235.043411 71.460161 231.426935 72.6413615 228.483524 71 227.829882 71.4676863 228.354576 72.3222311 225.533907 71.682298 223.450239 72.7910323 223 75.9795492 224.592965 78.8734627 227.704711 79 230.981282 77.2167718 236 75.8215169 235.043411 71.460161"></polyline>
                <path d="M232,72.4272874 C237.932738,71.0773967 243.865476,69.7277825 249.798214,68.3778918 C251.395303,68.0149169 253.051375,67.9369588 254.648464,67.5618203 C256.983548,67.0136259 257.623239,66.8223245 257.951205,64.6618913 C258.90205,58.4000903 257.693904,51.9035859 258.668399,45.7355005 C261.011461,45.5096433 263.273886,44.9705717 265.665673,45.0012573 C269.571347,45.0512942 269.232838,47.6581894 269.452527,50.5625415 C269.712962,54.0070711 269.868255,57.4623821 269.892759,60.9163109 C269.91299,63.7783667 270.886631,76.1919426 266.552977,77.100071 C263.447414,77.7605029 232.150448,79.3771649 232.163841,80 C232.158427,79.7492626 232,72.4272874 232,72.4272874" id="Fill-28" fill="#29ADA3"></path>
            </g>
        </g>
    </g>
</svg>